<svg width="1007" height="196" viewBox="0 0 1007 196" fill="none" xmlns="http://www.w3.org/2000/svg" aria-hidden="true">
  <rect width="1007" height="196" fill="url(#logoGrad)"/>
  <g opacity="0.06">
    <path d="M77.5113 157.637C65.5562 157.637 55.0075 155 45.8654 149.726C36.7232 144.451 29.6322 136.95 24.5923 127.222C19.5524 117.494 17.0324 106.183 17.0324 93.2905C17.0324 80.2805 19.4352 68.97 24.2407 59.359C29.1634 49.748 36.1372 42.364 45.1621 37.2068C54.3043 31.9325 65.0873 29.2954 77.5113 29.2954C88.7632 29.2954 98.4914 31.5223 106.696 35.9762C115.018 40.3128 121.464 46.2904 126.035 53.9089C130.723 61.4101 133.478 69.7904 134.298 79.0498H117.42C116.951 72.7206 115.076 66.8602 111.794 61.4687C108.513 56.0772 103.942 51.7991 98.0812 48.6345C92.2208 45.4699 85.3642 43.8877 77.5113 43.8877C68.6036 43.8877 60.8679 45.8802 54.3043 49.8652C47.8579 53.8503 42.8766 59.5934 39.3604 67.0947C35.8442 74.4787 34.0861 83.2106 34.0861 93.2905C34.0861 103.253 35.9614 111.985 39.712 119.486C43.5798 126.987 48.7956 132.789 55.3592 136.891C61.9228 140.994 69.3068 143.045 77.5113 143.045C85.1298 143.045 91.8106 141.404 97.5537 138.122C103.297 134.84 107.868 130.68 111.267 125.64C114.666 120.6 116.717 115.443 117.42 110.168H134.298C133.243 118.842 130.313 126.812 125.508 134.079C120.819 141.228 114.373 146.971 106.168 151.308C97.9639 155.527 88.4116 157.637 77.5113 157.637ZM192.855 157.637C183.831 157.637 175.685 155.645 168.418 151.66C161.151 147.557 155.408 141.697 151.188 134.079C146.969 126.343 144.859 117.201 144.859 106.652C144.859 96.1034 146.969 87.0199 151.188 79.4014C155.408 71.6657 161.151 65.8054 168.418 61.8203C175.685 57.7181 183.831 55.667 192.855 55.667C201.88 55.667 210.026 57.7181 217.293 61.8203C224.56 65.8054 230.303 71.6657 234.523 79.4014C238.742 87.0199 240.852 96.1034 240.852 106.652C240.852 117.201 238.742 126.343 234.523 134.079C230.303 141.697 224.56 147.557 217.293 151.66C210.026 155.645 201.88 157.637 192.855 157.637ZM192.855 143.924C198.833 143.924 204.166 142.517 208.854 139.704C213.66 136.774 217.41 132.555 220.106 127.046C222.919 121.42 224.326 114.622 224.326 106.652C224.326 98.682 222.919 91.9426 220.106 86.4338C217.41 80.8079 213.66 76.5884 208.854 73.7755C204.166 70.8453 198.833 69.3802 192.855 69.3802C186.878 69.3802 181.486 70.8453 176.681 73.7755C171.993 76.5884 168.242 80.8079 165.429 86.4338C162.733 91.9426 161.385 98.682 161.385 106.652C161.385 114.622 162.733 121.42 165.429 127.046C168.242 132.555 171.993 136.774 176.681 139.704C181.486 142.517 186.878 143.924 192.855 143.924ZM253.772 58.3041H269.244V76.4126H269.595C272.526 69.849 276.745 64.7505 282.254 61.1171C287.763 57.4837 294.209 55.667 301.593 55.667C308.391 55.667 314.251 57.2493 319.174 60.4139C324.097 63.5784 327.847 68.2667 330.426 74.4787C333.004 80.6907 334.294 88.1919 334.294 96.9825V155H318.471V98.5648C318.471 88.6022 316.537 81.3353 312.669 76.7642C308.801 72.076 303.468 69.7318 296.67 69.7318C291.865 69.7318 287.411 70.9039 283.309 73.248C279.206 75.5922 275.866 79.2256 273.287 84.1483C270.826 89.071 269.595 95.2244 269.595 102.608V155H253.772V58.3041ZM356.876 47.0522C356.876 37.6757 359.396 30.4674 364.436 25.4275C369.476 20.2704 376.684 17.6919 386.06 17.6919H419.113V31.7567H386.06C381.724 31.7567 378.383 33.1046 376.039 35.8004C373.812 38.3789 372.699 42.1295 372.699 47.0522V155H356.876V47.0522ZM402.587 72.369H344.569V58.3041H409.092C411.787 58.3041 414.014 59.1832 415.772 60.9413C417.53 62.6994 418.41 64.9263 418.41 67.6221V155H402.587V72.369ZM478.365 157.637C470.512 157.637 463.128 155.645 456.213 151.66C449.298 147.675 443.73 141.873 439.511 134.254C435.291 126.519 433.182 117.318 433.182 106.652C433.182 95.9862 435.291 86.8441 439.511 79.2256C443.73 71.4899 449.298 65.6296 456.213 61.6445C463.128 57.6595 470.512 55.667 478.365 55.667C486.57 55.667 493.895 57.7767 500.341 61.9961C506.788 66.0984 511.476 71.7243 514.406 78.874H514.758C514.523 76.4126 514.406 72.8964 514.406 68.3253V17.6919H530.229V155H514.582V144.979C514.582 140.408 514.641 136.892 514.758 134.43H514.406C511.476 141.58 506.788 147.264 500.341 151.484C493.895 155.586 486.57 157.637 478.365 157.637ZM482.233 143.924C488.562 143.924 494.188 142.4 499.111 139.353C504.033 136.188 507.843 131.793 510.538 126.167C513.234 120.424 514.582 113.919 514.582 106.652C514.582 99.3852 513.234 92.9388 510.538 87.3129C507.843 81.5697 504.033 77.1745 499.111 74.1271C494.188 70.9625 488.562 69.3802 482.233 69.3802C475.904 69.3802 470.278 70.9625 465.355 74.1271C460.432 77.1745 456.565 81.5697 453.752 87.3129C451.056 92.9388 449.708 99.3852 449.708 106.652C449.708 113.919 451.056 120.424 453.752 126.167C456.565 131.793 460.432 136.188 465.355 139.353C470.278 142.4 475.904 143.924 482.233 143.924ZM590.58 157.637C581.204 157.637 572.882 155.527 565.615 151.308C558.466 147.089 552.898 141.17 548.913 133.551C545.045 125.815 543.111 116.849 543.111 106.652C543.111 96.455 545.104 87.4887 549.089 79.753C553.074 72.0174 558.583 66.0984 565.615 61.9961C572.765 57.7767 580.969 55.667 590.229 55.667C598.902 55.667 606.696 57.5423 613.612 61.2929C620.644 64.9263 626.153 70.2006 630.138 77.1159C634.123 84.0311 636.115 92.177 636.115 101.554V111.926H559.813C560.282 118.021 561.747 123.53 564.209 128.453C566.787 133.258 570.304 137.067 574.757 139.88C579.328 142.576 584.603 143.924 590.58 143.924C597.261 143.924 603.004 142.283 607.81 139.001C612.733 135.602 616.19 131.031 618.183 125.288H635.236C633.947 131.617 631.193 137.243 626.973 142.166C622.871 146.971 617.655 150.781 611.326 153.594C604.997 156.289 598.082 157.637 590.58 157.637ZM619.589 98.389C619.589 92.6458 618.417 87.6059 616.073 83.2692C613.729 78.8154 610.388 75.4164 606.052 73.0722C601.715 70.6109 596.617 69.3802 590.756 69.3802C584.779 69.3802 579.621 70.6695 575.285 73.248C570.948 75.7094 567.491 79.1084 564.912 83.4451C562.451 87.7817 560.868 92.763 560.165 98.389H619.589ZM650.349 58.3041H665.82V76.4126H666.172C669.102 69.849 673.322 64.7505 678.83 61.1171C684.339 57.4837 690.786 55.667 698.17 55.667C704.968 55.667 710.828 57.2493 715.751 60.4139C720.673 63.5784 724.424 68.2667 727.003 74.4787C729.581 80.6907 730.87 88.1919 730.87 96.9825V155H715.047V98.5648C715.047 88.6022 713.114 81.3353 709.246 76.7642C705.378 72.076 700.045 69.7318 693.247 69.7318C688.441 69.7318 683.988 70.9039 679.885 73.248C675.783 75.5922 672.443 79.2256 669.864 84.1483C667.403 89.071 666.172 95.2244 666.172 102.608V155H650.349V58.3041ZM782.781 155C774.342 155 767.955 152.89 763.618 148.671C759.281 144.334 757.113 137.946 757.113 129.507V31.9325H772.936V129.507C772.936 133.492 773.874 136.423 775.749 138.298C777.741 140.056 780.672 140.935 784.539 140.935H804.406V155H782.781ZM737.774 58.3041H803.527V72.369H737.774V58.3041ZM891.133 31.9325H907.835L954.073 155H936.844L911.527 83.7967C910.003 79.2256 908.421 74.7131 906.78 70.2593C905.139 65.6882 903.908 62.2892 903.088 60.0622C902.385 57.8353 901.213 54.4949 899.572 50.041H899.396C895.411 61.2929 891.426 72.5448 887.441 83.7967L862.124 155H844.895L891.133 31.9325ZM870.211 107.707H929.284V122.123H870.211V107.707ZM966.796 31.9325H983.146V155H966.796V31.9325Z" fill="white"/>
  </g>
  <defs>
    <linearGradient id="logoGrad" x1="503.5" y1="0" x2="503.5" y2="98" gradientUnits="userSpaceOnUse">
      <stop stop-color="#131313" stop-opacity="0"/>
      <stop offset="1" stop-color="#131313"/>
    </linearGradient>
  </defs>
</svg>
