<svg preserveAspectRatio="none" overflow="visible" style="display: block;" width="558.984" height="479.822" viewBox="0 0 558.984 479.822" fill="none" xmlns="http://www.w3.org/2000/svg">
<g id="left">
<path id="Vector" d="M369.376 207.182H349.626V251.673H369.376V207.182Z" stroke="#DAD9D4" stroke-width="1.6" stroke-miterlimit="10"/>
<path id="Vector_2" d="M369.376 251.674H349.626V352.682H369.376V251.674Z" stroke="#DAD9D4" stroke-width="1.6" stroke-miterlimit="10"/>
<path id="Vector_3" d="M444.275 207.182H424.523V251.673H444.275V207.182Z" stroke="#DAD9D4" stroke-width="1.6" stroke-miterlimit="10"/>
<path id="Vector_4" d="M444.275 251.674H424.523V352.682H444.275V251.674Z" stroke="#DAD9D4" stroke-width="1.6" stroke-miterlimit="10"/>
<path id="Vector_5" d="M369.376 63.6115H349.626V100.46H369.376V63.6115Z" stroke="#DAD9D4" stroke-width="1.6" stroke-miterlimit="10"/>
<path id="Vector_6" d="M369.376 124.851H349.626V161.7H369.376V124.851Z" stroke="#DAD9D4" stroke-width="1.6" stroke-miterlimit="10"/>
<path id="Vector_7" d="M444.275 63.6115H424.523V100.46H444.275V63.6115Z" stroke="#DAD9D4" stroke-width="1.6" stroke-miterlimit="10"/>
<path id="Vector_8" d="M444.275 124.851H424.523V161.7H444.275V124.851Z" stroke="#DAD9D4" stroke-width="1.6" stroke-miterlimit="10"/>
<path id="Vector_9" d="M391.157 183.266V378.249" stroke="#DAD9D4" stroke-width="1.6" stroke-miterlimit="10"/>
<path id="Vector_10" d="M402.745 183.266V378.249" stroke="#DAD9D4" stroke-width="1.6" stroke-miterlimit="10"/>
<path id="Vector_11" d="M396.95 183.266V378.249" stroke="#DAD9D4" stroke-width="1.6" stroke-miterlimit="10"/>
<path id="Vector_12" d="M466.054 183.266V378.249" stroke="#DAD9D4" stroke-width="1.6" stroke-miterlimit="10"/>
<path id="Vector_13" d="M471.849 183.266V378.249" stroke="#DAD9D4" stroke-width="1.6" stroke-miterlimit="10"/>
<path id="Vector_14" d="M503.806 378.363H0.8V479.022H503.806V378.363Z" stroke="#DAD9D4" stroke-width="1.6" stroke-miterlimit="10"/>
<path id="Vector_15" d="M503.807 0.8V22.1535H489.149V7.83607H469.852V15.594H319.841V22.1535H13.0722V6.74862H3.51875V0.8H503.807Z" stroke="#DAD9D4" stroke-width="1.6" stroke-miterlimit="10"/>
<path id="Vector_16" d="M469.852 15.5939H319.841V22.1534H469.852V15.5939Z" stroke="#DAD9D4" stroke-width="1.6" stroke-miterlimit="10"/>
<path id="Vector_17" d="M469.852 15.5939H319.841V29.9113H469.852V15.5939Z" stroke="#DAD9D4" stroke-width="1.6" stroke-miterlimit="10"/>
<path id="Vector_18" d="M489.147 7.83613H469.851V44.1988H489.147V7.83613Z" stroke="#DAD9D4" stroke-width="1.6" stroke-miterlimit="10"/>
<path id="Vector_19" d="M492.811 63.6115V44.197H489.144" stroke="#DAD9D4" stroke-width="1.6" stroke-miterlimit="10"/>
<path id="Vector_20" d="M13.0734 44.197H469.851" stroke="#DAD9D4" stroke-width="1.6" stroke-miterlimit="10"/>
<path id="Vector_21" d="M347.948 15.5939V29.9113" stroke="#DAD9D4" stroke-width="1.6" stroke-miterlimit="10"/>
<path id="Vector_22" d="M372.661 15.5939V29.9113" stroke="#DAD9D4" stroke-width="1.6" stroke-miterlimit="10"/>
<path id="Vector_23" d="M397.372 15.5939V29.9113" stroke="#DAD9D4" stroke-width="1.6" stroke-miterlimit="10"/>
<path id="Vector_24" d="M422.075 15.5939V29.9113" stroke="#DAD9D4" stroke-width="1.6" stroke-miterlimit="10"/>
<path id="Vector_25" d="M446.798 15.5939V29.9113" stroke="#DAD9D4" stroke-width="1.6" stroke-miterlimit="10"/>
<path id="Vector_26" d="M471.847 175.608H6.51094V183.377H471.847V175.608Z" stroke="#DAD9D4" stroke-width="1.6" stroke-miterlimit="10"/>
<path id="Vector_27" d="M498.372 63.6115H492.82V378.365H498.372V63.6115Z" stroke="#DAD9D4" stroke-width="1.6" stroke-miterlimit="10"/>
<path id="Vector_28" d="M548.56 82.0354H498.37V85.7836H548.56V82.0354Z" stroke="#DAD9D4" stroke-width="1.6" stroke-miterlimit="10"/>
<path id="Vector_29" d="M545.149 85.7834H498.37V113.682H545.149V85.7834Z" stroke="#DAD9D4" stroke-width="1.6" stroke-miterlimit="10"/>
<path id="Vector_30" d="M518.642 96.8386H504.97V124.738H518.642V96.8386Z" stroke="#DAD9D4" stroke-width="1.6" stroke-miterlimit="10"/>
<path id="Vector_31" d="M545.149 113.683H498.37V124.741H545.149V113.683Z" stroke="#DAD9D4" stroke-width="1.6" stroke-miterlimit="10"/>
<path id="Vector_32" d="M552.361 124.74H498.37V138.06H552.361V124.74Z" stroke="#DAD9D4" stroke-width="1.6" stroke-miterlimit="10"/>
<path id="Vector_33" d="M545.152 124.741V113.683" stroke="#DAD9D4" stroke-width="1.6" stroke-miterlimit="10"/>
<path id="Vector_34" d="M504.97 130.069H545.146" stroke="#DAD9D4" stroke-width="1.6" stroke-miterlimit="10"/>
<path id="Vector_35" d="M552.363 113.683H545.152V119.208H552.363V113.683Z" stroke="#DAD9D4" stroke-width="1.6" stroke-miterlimit="10"/>
<path id="Vector_36" d="M549.173 119.212V124.737" stroke="#DAD9D4" stroke-width="1.6" stroke-miterlimit="10"/>
<path id="Vector_37" d="M548.56 166.852H498.37V170.601H548.56V166.852Z" stroke="#DAD9D4" stroke-width="1.6" stroke-miterlimit="10"/>
<path id="Vector_38" d="M545.149 170.605H498.37V198.504H545.149V170.605Z" stroke="#DAD9D4" stroke-width="1.6" stroke-miterlimit="10"/>
<path id="Vector_39" d="M518.642 181.658H504.97V209.559H518.642V181.658Z" stroke="#DAD9D4" stroke-width="1.6" stroke-miterlimit="10"/>
<path id="Vector_40" d="M545.149 198.504H498.37V209.559H545.149V198.504Z" stroke="#DAD9D4" stroke-width="1.6" stroke-miterlimit="10"/>
<path id="Vector_41" d="M552.361 209.557H498.37V222.877H552.361V209.557Z" stroke="#DAD9D4" stroke-width="1.6" stroke-miterlimit="10"/>
<path id="Vector_42" d="M545.152 209.556V198.504" stroke="#DAD9D4" stroke-width="1.6" stroke-miterlimit="10"/>
<path id="Vector_43" d="M504.97 214.885H545.146" stroke="#DAD9D4" stroke-width="1.6" stroke-miterlimit="10"/>
<path id="Vector_44" d="M552.363 198.504H545.152V204.029H552.363V198.504Z" stroke="#DAD9D4" stroke-width="1.6" stroke-miterlimit="10"/>
<path id="Vector_45" d="M549.173 204.029V209.557" stroke="#DAD9D4" stroke-width="1.6" stroke-miterlimit="10"/>
<path id="Vector_46" d="M548.56 251.674H498.37V255.422H548.56V251.674Z" stroke="#DAD9D4" stroke-width="1.6" stroke-miterlimit="10"/>
<path id="Vector_47" d="M545.149 255.422H498.37V283.321H545.149V255.422Z" stroke="#DAD9D4" stroke-width="1.6" stroke-miterlimit="10"/>
<path id="Vector_48" d="M518.642 266.477H504.97V294.378H518.642V266.477Z" stroke="#DAD9D4" stroke-width="1.6" stroke-miterlimit="10"/>
<path id="Vector_49" d="M545.149 283.321H498.37V294.377H545.149V283.321Z" stroke="#DAD9D4" stroke-width="1.6" stroke-miterlimit="10"/>
<path id="Vector_50" d="M552.361 294.378H498.37V307.698H552.361V294.378Z" stroke="#DAD9D4" stroke-width="1.6" stroke-miterlimit="10"/>
<path id="Vector_51" d="M545.152 294.377V283.321" stroke="#DAD9D4" stroke-width="1.6" stroke-miterlimit="10"/>
<path id="Vector_52" d="M504.97 299.707H545.146" stroke="#DAD9D4" stroke-width="1.6" stroke-miterlimit="10"/>
<path id="Vector_53" d="M552.363 283.321H545.152V288.847H552.363V283.321Z" stroke="#DAD9D4" stroke-width="1.6" stroke-miterlimit="10"/>
<path id="Vector_54" d="M549.173 288.846V294.378" stroke="#DAD9D4" stroke-width="1.6" stroke-miterlimit="10"/>
<path id="Vector_55" d="M359.49 398.17C375.055 398.17 387.695 410.808 387.695 426.375V478.748H331.288V426.375C331.288 410.81 343.926 398.17 359.495 398.17H359.49Z" stroke="#DAD9D4" stroke-width="1.6" stroke-miterlimit="10"/>
<path id="Vector_56" d="M434.397 398.17C449.961 398.17 462.601 410.808 462.601 426.375V478.748H406.195V426.375C406.195 410.81 418.832 398.17 434.401 398.17H434.397Z" stroke="#DAD9D4" stroke-width="1.6" stroke-miterlimit="10"/>
<path id="Vector_57" d="M558.984 479.019H503.808" stroke="#DAD9D4" stroke-width="1.6" stroke-miterlimit="10"/>
</g>
</svg>
